<svg width="188" height="195" viewBox="0 0 188 195" fill="none" xmlns="http://www.w3.org/2000/svg">
<path d="M99.964 55.3664L149.788 72.7373C152.699 73.7517 152.75 77.8427 149.864 78.9247L99.8879 97.7241C98.9992 98.0538 98.2967 98.7554 97.9667 99.6429L79.0257 149.87C77.9593 152.71 73.9308 152.71 72.8559 149.87L53.9234 99.6429C53.5849 98.7554 52.8825 98.0538 51.9939 97.7241L2.13635 78.9668C-0.758109 77.8764 -0.698869 73.7602 2.23791 72.7712L53.5003 55.3751C54.4736 55.0454 55.2353 54.2847 55.5654 53.3126L72.9406 2.23172C73.9393 -0.709885 78.0863 -0.752014 79.1527 2.15578L97.9497 53.3886C98.2967 54.3184 99.033 55.0368 99.964 55.3664Z" fill="#84DA53"/>
<path d="M169.514 138.67L187.214 144.841C188.248 145.201 188.266 146.655 187.241 147.039L169.486 153.718C169.171 153.835 168.921 154.084 168.804 154.399L162.075 172.243C161.696 173.252 160.265 173.252 159.883 172.243L153.157 154.399C153.037 154.084 152.787 153.835 152.472 153.718L134.759 147.054C133.731 146.667 133.752 145.204 134.795 144.853L153.007 138.673C153.352 138.556 153.623 138.285 153.74 137.94L159.913 119.793C160.268 118.748 161.741 118.733 162.12 119.766L168.798 137.967C168.921 138.297 169.183 138.553 169.514 138.67Z" fill="#84DA53"/>
<path d="M110.468 181.014L117.68 183.528C118.101 183.675 118.109 184.267 117.691 184.423L110.457 187.144C110.329 187.192 110.227 187.294 110.179 187.422L107.438 194.692C107.284 195.103 106.701 195.103 106.545 194.692L103.805 187.422C103.756 187.294 103.654 187.192 103.525 187.144L96.3092 184.429C95.8903 184.272 95.8988 183.676 96.3239 183.533L103.743 181.015C103.884 180.967 103.995 180.857 104.042 180.716L106.557 173.323C106.702 172.897 107.302 172.891 107.456 173.312L110.177 180.727C110.227 180.862 110.334 180.966 110.468 181.014Z" fill="#84DA53"/>
</svg>
